<?xml version="1.0" encoding="UTF-8" standalone="no"?><!DOCTYPE svg PUBLIC "-//W3C//DTD SVG 1.1//EN" "http://www.w3.org/Graphics/SVG/1.1/DTD/svg11.dtd"><svg width="100%" height="100%" viewBox="0 0 1285 801" version="1.1" xmlns="http://www.w3.org/2000/svg" xmlns:xlink="http://www.w3.org/1999/xlink" xml:space="preserve" xmlns:serif="http://www.serif.com/" style="fill-rule:evenodd;clip-rule:evenodd;stroke-linejoin:round;stroke-miterlimit:2;"><g><path d="M1134.8,125.877c-10.624,0 -19.242,-8.614 -19.242,-19.24c0,-10.626 8.618,-19.242 19.242,-19.242c10.628,0 19.242,8.616 19.242,19.242c0,10.626 -8.614,19.24 -19.242,19.24m-928.984,461.324l-96.526,0l-2.606,0c-55.33,0 -100.598,45.27 -100.598,100.598c0,55.328 45.268,100.598 100.598,100.598l977.574,0c89.592,0 162.894,-73.306 162.894,-162.896c0,-89.594 -73.302,-162.898 -162.894,-162.898c-37.884,0 -68.876,-30.994 -68.876,-68.876c0,-37.882 30.992,-68.876 68.876,-68.876l82.894,0c39.382,0 71.608,-32.224 71.608,-71.608c0,-39.386 -32.226,-71.61 -71.608,-71.61l-104.82,0c-15.336,0 -27.88,-12.546 -27.88,-27.878l0,-0.002c0,-15.332 12.544,-27.876 27.88,-27.876l18.476,0c10.582,0 19.238,-8.658 19.238,-19.24c0,-10.582 -8.656,-19.242 -19.238,-19.242l-69.254,0l-51.992,0c-25.54,0 -28.384,30.168 -92.884,30.168l-185.846,0c-13.81,0 -25.106,11.298 -25.106,25.106c0,13.806 11.296,25.104 25.106,25.104l24.112,0c20.004,0 36.376,16.374 36.376,36.38c0,20.006 -16.372,36.376 -36.376,36.376l-36.284,0c-97.986,0 -111.824,25.608 -128.986,76.538c-17.162,50.93 -106.288,55.034 -106.288,55.034l-241.188,0c-30.15,0 -54.82,24.67 -54.82,54.82l0,0.002c0,30.152 24.67,54.822 54.82,54.822l13.618,0c29,0 52.73,23.726 52.73,52.728c0,29 -23.73,52.728 -52.73,52.728" style="fill:#e1e8f6;"/><path d="M711.069,293.026c-30.704,-4.99 -74.066,-17.31 -116.248,-47.38c-59.77,-42.608 65.974,-28.1 168.362,6.292l-39.568,35.176l-12.546,5.912Z" style="fill:#0e2d34;"/><path d="M607.566,211.529c20.238,19.326 73.152,57.864 124.472,98.906l56.262,22.048l11.07,-34.438c-39.332,-63.422 -91.864,-128.396 -137.722,-161.552c-80.448,-58.168 -125.096,7.214 -54.082,75.036" style="fill:#1b7154;"/><path d="M788.846,330.779c-64.618,-103.532 -186.858,-187.424 -187.304,-187.732c-0.872,-0.606 -2.022,-0.348 -2.562,0.572c-0.544,0.922 -0.276,2.158 0.598,2.762c0.438,0.304 120.726,82.862 185.054,184.666l3.668,1.436l0.546,-1.704Z" style="fill:#0e2d34;"/><path d="M735.334,79.672c9.7,27.626 23.902,92.466 40.878,159.576c-8.588,27.124 -26.292,50.212 -49.41,65.726c-39.956,-63.608 -74.746,-136.6 -86.824,-193.81c-23.642,-111.98 58.43,-136.66 95.356,-31.492" style="fill:#a6c86b;"/><path d="M751.252,283.479c-55.906,-107.126 -80.09,-236.254 -80.192,-236.792c-0.23,-1.204 0.492,-2.386 1.61,-2.638c1.122,-0.25 2.218,0.522 2.446,1.726c0.104,0.534 24.014,128.166 79.038,234.262c-0.948,1.164 -1.914,2.314 -2.902,3.442" style="fill:#5f9850;"/><path d="M729.99,80.59c0.132,27.98 9.124,92.824 15.204,158.254l23.178,55.802l32.478,-15.932c18.35,-72.338 28.656,-155.254 20.694,-211.278c-13.972,-98.286 -92.026,-85.044 -91.554,13.154" style="fill:#1b7154;"/><path d="M769.979,293.858c29.676,-118.376 5.214,-264.606 5.128,-265.14c-0.17,-1.048 -1.152,-1.696 -2.194,-1.448c-1.04,0.248 -1.742,1.298 -1.57,2.348c0.086,0.53 24.148,144.422 -4.482,261.394l1.512,3.636l1.606,-0.79Z" style="fill:#0e2d34;"/><path d="M491.161,717.26c24.71,13.76 85.988,37.918 146.642,64.97l63.03,0l1.642,-28.832c-55.048,-52.454 -123.504,-103.056 -177.22,-123.994c-94.242,-36.732 -121.506,39.184 -34.094,87.856" style="fill:#1b7154;"/><path d="M693.834,782.231c-90.41,-81.832 -225.664,-130.77 -226.168,-130.958c-1.016,-0.37 -2.082,0.178 -2.382,1.224c-0.298,1.046 0.282,2.196 1.298,2.57c0.498,0.182 131.99,47.76 221.596,127.164l5.656,0Z" style="fill:#0e2d34;"/><path d="M518.599,782.231c11.51,-15.58 62.52,-22.04 136.302,0l-136.302,0Z" style="fill:#0e2d34;"/><path d="M670.479,782.231c-19.59,-16.464 -39.708,-37.724 -53.188,-63.27c-34.776,-65.9 -45.586,-86.666 -62.538,-92.23c-14.638,-4.802 111.948,-59.328 231.652,68.666c-4.18,29.346 -20.274,60.842 -60.898,86.834l-55.028,0Z" style="fill:#4a9075;"/><path d="M571.486,616.354c68.836,25.202 137.58,77.826 193.81,129.914c-0.984,1.316 -2.004,2.628 -3.066,3.936c-57.614,-53.422 -128.388,-107.362 -198.668,-131.218c2.284,-0.894 4.938,-1.784 7.924,-2.632" style="fill:#1b7154;"/><path d="M668.283,485.572c20.226,20.278 56.508,65.768 98.024,116.47c0.004,0.014 42.234,67.712 7.676,130.724c-75.606,-47.976 -150.236,-108.434 -192.622,-163.662c-83.65,-108.994 -7.58,-178.264 86.922,-83.532" style="fill:#a6c86b;"/><path d="M786.541,694.487c-113.902,-86.882 -204.566,-210.79 -204.952,-211.312c-0.874,-1.184 -0.704,-2.838 0.378,-3.69c1.082,-0.854 2.67,-0.586 3.544,0.6c0.38,0.516 89.58,122.414 201.652,208.594c-0.162,1.926 -0.36,3.86 -0.622,5.808" style="fill:#5f9850;"/><path d="M731.01,778.551c-14.378,-17.152 -33.218,-36.324 -55.726,-51.944c-54.656,-37.926 -108.97,-16.64 -114.158,3.884c-2.116,8.372 -0.236,28.124 9.4,51.74l154.952,0c1.896,-1.218 3.74,-2.442 5.532,-3.68" style="fill:#a6c86b;"/><path d="M684.115,782.231l-12.554,0c-4.068,-2.43 -8.228,-4.818 -12.482,-7.154c-1.784,1.436 -4.686,3.858 -8.25,7.154l-5.898,0c4.152,-4.054 7.738,-7.188 10.242,-9.276c-14.644,-7.834 -30.324,-15.02 -46.92,-21.054c-4.344,2.474 -13.434,8.39 -19.966,17.688c-0.482,0.688 -1.446,0.552 -2.154,-0.306c-0.704,-0.858 -0.886,-2.116 -0.402,-2.806c5.418,-7.714 12.534,-13.182 17.468,-16.37c-10.618,-3.668 -21.588,-6.86 -32.9,-9.434c-1.702,-0.386 -3.248,-2.46 -3.45,-4.634c-0.202,-2.176 1.014,-3.626 2.716,-3.24c23.224,5.286 45.072,13.118 65.316,22.408c-11.97,-24.518 -23.208,-39.438 -23.244,-39.486c-0.676,-0.904 -0.794,-2.15 -0.268,-2.784c0.53,-0.638 1.506,-0.42 2.18,0.482c0.04,0.05 12.562,16.68 25.366,43.668c16.18,7.658 31.286,16.23 45.2,25.144m6.708,0c-4.86,-12.16 -13.618,-33.022 -20.766,-44.32c-0.61,-0.968 -1.59,-1.32 -2.192,-0.794c-0.602,0.53 -0.59,1.742 0.02,2.71c6.742,10.656 15.054,30.342 19.89,42.404l3.048,0Z" style="fill:#5f9850;"/><path d="M8.886,800l22.47,0c4.888,0 8.886,-3.998 8.886,-8.884l0,-0.002c0,-4.888 -3.998,-8.884 -8.886,-8.884l-22.47,0c-4.886,0 -8.886,3.996 -8.886,8.884l0,0.002c0,4.886 4,8.884 8.886,8.884" style="fill:#00000f;"/><path d="M1171.18,358.125c30.082,-16.41 70.632,-45.064 103.468,-91.728c46.528,-66.124 -78.824,-5.08 -172.64,68.084l53.972,22.088l15.2,1.556Z" style="fill:#0e2d34;"/><path d="M1258.74,211.867c-12.602,28.126 -50.546,89.444 -85.816,152.65l-48.212,45.888l-25.616,-30.52c13.738,-81.048 40.292,-169.166 73.272,-222.056c57.86,-92.788 130.594,-44.672 86.372,54.038" style="fill:#1b7154;"/><path d="M1123.44,408.895c22.84,-132.47 112.628,-268.882 112.954,-269.382c0.636,-0.98 1.918,-1.196 2.85,-0.482c0.938,0.714 1.18,2.086 0.54,3.066c-0.32,0.496 -88.668,134.728 -111.938,265.318l-3.14,2.99l-1.266,-1.51Z" style="fill:#0e2d34;"/><path d="M1073.58,130.524c1.594,32.208 14.078,104.252 24.672,179.76c20.042,24.094 47.706,40.276 77.738,46.488c14.298,-81.498 19.418,-170.416 7.946,-233.79c-22.466,-124.046 -116.438,-115.084 -110.356,7.542" style="fill:#a6c86b;"/><path d="M1142.11,345.016c12.46,-132.518 -16.578,-274.28 -16.696,-274.872c-0.268,-1.324 -1.496,-2.228 -2.742,-2.016c-1.25,0.206 -2.042,1.45 -1.776,2.774c0.116,0.588 28.812,140.712 16.824,271.812c1.448,0.79 2.91,1.562 4.39,2.302" style="fill:#5f9850;"/><path d="M1254.91,800l-1173.44,0c-4.886,0 -8.884,-3.998 -8.884,-8.884l0,-0.002c0,-4.888 3.998,-8.884 8.884,-8.884l1173.44,0c4.886,0 8.882,3.996 8.882,8.884l0,0.002c0,4.886 -3.996,8.884 -8.882,8.884" style="fill:#00000f;"/><path d="M881.018,106.637l141.64,0c6.992,0 12.712,5.72 12.712,12.71l0,69.734c0,6.99 -5.72,12.71 -12.712,12.71l-141.64,0c-6.992,0 -12.71,-5.72 -12.71,-12.71l0,-69.734c0,-6.99 5.718,-12.71 12.71,-12.71" style="fill:#b83470;"/><path d="M858.135,128.268l187.402,0c9.25,0 16.816,7.568 16.816,16.818l0,92.26c0,9.248 -7.566,16.816 -16.816,16.816l-187.402,0c-9.246,0 -16.816,-7.568 -16.816,-16.816l0,-92.26c0,-9.25 7.57,-16.818 16.816,-16.818" style="fill:#00000f;"/><path d="M736.815,644.34l76.246,0c5.02,0 8.012,4.11 6.652,9.128l-32.444,119.652c-1.364,5.02 -6.586,9.128 -11.606,9.128l-15.38,0c-0.66,0 -1.25,-0.07 -1.784,-0.198c-0.692,0.13 -1.402,0.198 -2.134,0.198l-19.55,0c-6.382,0 -11.61,-5.222 -11.61,-11.608l0,-114.692c0,-6.386 5.228,-11.608 11.61,-11.608" style="fill:#00000f;"/><path d="M1152.18,612.674l-19.554,0l-56.692,31.666c-4.386,2.448 -8.016,4.11 -6.656,9.128l32.448,119.652c1.36,5.02 6.582,9.128 11.606,9.128l15.38,0c0.656,0 1.246,-0.07 1.78,-0.198c0.692,0.13 1.402,0.198 2.134,0.198l19.554,0c6.382,0 11.606,-5.222 11.606,-11.608l0,-146.358c0,-6.386 -5.228,-11.608 -11.606,-11.608" style="fill:#00000f;"/><path d="M712.03,644.34l76.25,0c5.02,0 8.012,4.11 6.652,9.128l-32.444,119.652c-1.364,5.02 -6.586,9.128 -11.606,9.128l-15.38,0c-0.66,0 -1.25,-0.07 -1.784,-0.198c-0.692,0.13 -1.402,0.198 -2.134,0.198l-19.554,0c-6.378,0 -11.602,-5.222 -11.602,-11.608l0,-114.692c0,-6.386 5.224,-11.608 11.602,-11.608" style="fill:#101537;"/><path d="M1127.4,644.34l-19.554,0l-56.692,0c-5.024,0 -8.016,4.11 -6.656,9.128l32.448,119.652c1.36,5.02 6.582,9.128 11.606,9.128l15.38,0c0.656,0 1.246,-0.07 1.78,-0.198c0.692,0.13 1.402,0.198 2.134,0.198l19.554,0c6.382,0 11.606,-5.222 11.606,-11.608l0,-114.692c0,-6.386 -5.224,-11.608 -11.606,-11.608" style="fill:#101537;"/><path d="M848.893,106.637l141.64,0c6.992,0 12.712,5.72 12.712,12.71l0,69.734c0,6.99 -5.72,12.71 -12.712,12.71l-141.64,0c-6.992,0 -12.71,-5.72 -12.71,-12.71l0,-69.734c0,-6.99 5.718,-12.71 12.71,-12.71" style="fill:#e94d90;"/><path d="M826.014,128.268l187.398,0c9.25,0 16.82,7.568 16.82,16.818l0,92.26c0,9.248 -7.57,16.816 -16.82,16.816l-187.398,0c-9.25,0 -16.82,-7.568 -16.82,-16.816l0,-92.26c0,-9.25 7.57,-16.818 16.82,-16.818" style="fill:#101537;"/><path d="M956.428,151.336c166.66,0 301.762,135.102 301.762,301.762c0,166.66 -135.102,301.764 -301.762,301.764c-6.046,0 -12.046,-0.196 -18.004,-0.552l-18.71,0l0,-1.678c-149.34,-18.114 -265.048,-145.304 -265.048,-299.534c0,-154.232 115.708,-281.42 265.048,-299.536l0,-2.226l36.714,0Z" style="fill:#004c84;"/><path d="M919.713,754.862c166.208,0 301.762,-135.556 301.762,-301.764c0,-166.206 -135.554,-301.764 -301.762,-301.764c-166.204,0 -301.762,135.558 -301.762,301.764c0,166.208 135.558,301.764 301.762,301.764" style="fill:#1874ba;"/><path d="M919.713,715.459c144.504,0 262.364,-117.858 262.364,-262.362c0,-144.504 -117.86,-262.362 -262.364,-262.362c-144.5,0 -262.36,117.858 -262.36,262.362c0,144.504 117.86,262.362 262.36,262.362" style="fill:#c7c3d1;"/><path d="M919.713,693.356c132.328,0 240.258,-107.93 240.258,-240.258c0,-132.328 -107.93,-240.258 -240.258,-240.258c-132.328,0 -240.258,107.93 -240.258,240.258c0,132.328 107.93,240.258 240.258,240.258" style="fill:#fff;"/><path d="M813.381,268.924c3.36,-1.94 7.68,-0.78 9.622,2.578l6.136,10.63c1.938,3.358 0.782,7.678 -2.578,9.618c-3.36,1.938 -7.688,0.78 -9.626,-2.578l-6.132,-10.626c-1.942,-3.358 -0.782,-7.682 2.578,-9.622m199.488,345.522c3.356,-1.94 7.684,-0.778 9.622,2.58l6.136,10.626c1.938,3.362 0.778,7.68 -2.582,9.62c-3.356,1.94 -7.684,0.78 -9.622,-2.576l-6.136,-10.628c-1.942,-3.36 -0.778,-7.684 2.582,-9.622m-277.328,-267.684c1.938,-3.356 6.262,-4.514 9.618,-2.576l10.628,6.136c3.36,1.94 4.516,6.266 2.578,9.626c-1.938,3.356 -6.262,4.516 -9.62,2.578l-10.626,-6.138c-3.364,-1.94 -4.52,-6.264 -2.578,-9.626m345.52,199.488c1.942,-3.358 6.266,-4.516 9.62,-2.576l10.63,6.134c3.36,1.94 4.516,6.264 2.578,9.624c-1.938,3.358 -6.266,4.516 -9.622,2.578l-10.628,-6.134c-3.36,-1.94 -4.516,-6.266 -2.578,-9.626m-374.012,-93.154c0,-3.88 3.16,-7.042 7.042,-7.042l12.27,0c3.888,0 7.044,3.162 7.044,7.046c0,3.88 -3.16,7.042 -7.044,7.042l-12.27,0c-3.886,0 -7.042,-3.164 -7.042,-7.046m398.972,0c0,-3.88 3.164,-7.042 7.044,-7.042l12.274,0c3.882,0 7.042,3.162 7.042,7.046c0,3.88 -3.164,7.042 -7.042,7.042l-12.274,0c-3.884,0 -7.044,-3.164 -7.044,-7.046m-370.48,106.336c-1.942,-3.36 -0.782,-7.684 2.578,-9.624l10.63,-6.134c3.358,-1.94 7.678,-0.782 9.616,2.58c1.938,3.358 0.782,7.684 -2.578,9.622l-10.624,6.134c-3.36,1.938 -7.684,0.78 -9.622,-2.578m345.52,-199.488c-1.938,-3.358 -0.778,-7.684 2.578,-9.622l10.628,-6.136c3.36,-1.94 7.68,-0.78 9.622,2.58c1.938,3.358 0.782,7.684 -2.578,9.622l-10.63,6.138c-3.358,1.94 -7.678,0.774 -9.62,-2.582m-267.684,277.326c-3.356,-1.938 -4.516,-6.262 -2.574,-9.618l6.132,-10.626c1.942,-3.362 6.27,-4.518 9.626,-2.578c3.36,1.936 4.516,6.264 2.582,9.62l-6.138,10.628c-1.944,3.36 -6.268,4.516 -9.628,2.574m199.488,-345.522c-3.356,-1.938 -4.516,-6.262 -2.578,-9.618l6.136,-10.63c1.942,-3.36 6.262,-4.514 9.626,-2.576c3.356,1.938 4.516,6.264 2.578,9.62l-6.136,10.628c-1.942,3.36 -6.266,4.516 -9.626,2.576m-93.152,374.016c-3.882,0 -7.042,-3.16 -7.042,-7.044l0,-12.268c0,-3.888 3.164,-7.046 7.042,-7.046c3.882,0 7.046,3.162 7.046,7.046l0,12.268c0,3.886 -3.164,7.044 -7.046,7.044m0,-398.974c-3.882,0 -7.042,-3.162 -7.042,-7.044l0,-12.272c0,-3.884 3.164,-7.042 7.042,-7.042c3.882,0 7.046,3.162 7.046,7.042l0,12.272c0,3.886 -3.164,7.044 -7.046,7.044" style="fill:#00000f;"/><path d="M919.713,461.416c4.578,0 8.32,-3.742 8.32,-8.318l0,-141.47c0,-4.574 -3.742,-8.318 -8.32,-8.318c-4.574,0 -8.316,3.744 -8.316,8.318l0,141.47c0,4.576 3.742,8.318 8.316,8.318" style="fill:#00000f;"/><path d="M913.834,447.217l-0.004,0c-3.234,3.234 -3.234,8.528 0.004,11.762l73.328,73.334c3.234,3.234 8.532,3.234 11.762,0l0.004,0c3.234,-3.236 3.234,-8.53 0,-11.766l-73.332,-73.33c-3.234,-3.236 -8.532,-3.236 -11.762,0" style="fill:#e94d90;"/><path d="M338.06,771.86c1.782,0 3.55,-0.052 5.31,-0.15l89.444,0l0,-94.602l0,-9.752c0,-33.426 -17.542,-62.954 -43.874,-79.832l0.002,0l-0.062,-0.038c-0.97,-0.62 -1.952,-1.218 -2.946,-1.804c-31.296,-19.714 -31.304,-38.228 -0.02,-57.942c1,-0.588 1.99,-1.192 2.966,-1.818l0.062,-0.036l-0.002,0c26.332,-16.88 43.874,-46.406 43.874,-79.832l0,-9.75l0,-94.602l-89.444,0c-1.76,-0.1 -3.528,-0.152 -5.31,-0.152c-1.782,0 -3.55,0.052 -5.31,0.152l-89.444,0l0,104.352c0,33.426 17.542,62.952 43.874,79.832l-0.002,0l0.062,0.038c0.976,0.624 1.966,1.228 2.964,1.816c31.288,19.714 31.278,38.23 -0.022,57.942c-0.992,0.586 -1.972,1.184 -2.94,1.802l-0.064,0.04l0.002,0c-26.332,16.88 -43.874,46.406 -43.874,79.832l0,104.354l89.444,0c1.76,0.098 3.528,0.15 5.31,0.15" style="fill:#fff;"/><path d="M299.35,733.166l26.022,0c16.752,0 17.438,-15.144 29.142,-15.144l52.546,0c14.226,0 16.944,13.308 16.944,13.308l0,18.258l-80.88,0l-0.246,0.014c-1.604,0.09 -3.21,0.138 -4.818,0.138c-1.606,0 -3.21,-0.048 -4.816,-0.138l-0.246,-0.014l-33.648,0l0,-16.422Z" style="fill:#fcc100;"/><path d="M264.817,468.836c-8.158,-13.268 -12.7,-28.706 -12.7,-44.81c0,-76.552 51.846,5.31 104.576,9.472c10.48,0.828 19.46,-0.32 27.124,-2.678c1.984,5.496 3.302,9.572 3.302,10.708c0,4.59 -44.974,38.548 -52.776,40.384c-7.802,1.836 -47.728,4.132 -64.248,-8.718c-1.702,-1.324 -3.472,-2.79 -5.278,-4.358" style="fill:#fcc100;"/><path d="M338.077,690.029c8.542,0 15.528,6.986 15.528,15.528l0,0.838c0,8.54 -6.986,15.528 -15.528,15.528c-8.542,0 -15.528,-6.988 -15.528,-15.528l0,-0.838c0,-8.542 6.986,-15.528 15.528,-15.528m0,-13.308c8.542,0 15.528,-6.988 15.528,-15.528l0,-11.622c0,-8.542 -6.986,-15.528 -15.528,-15.528c-8.542,0 -15.528,6.986 -15.528,15.528l0,11.622c0,8.54 6.986,15.528 15.528,15.528m15.558,-118.242c-0.92,-12.992 8.266,-26.022 27.58,-38.192l0.112,-0.07l0.112,-0.068c0.906,-0.534 1.804,-1.078 2.688,-1.648l0.092,-0.056l0.056,-0.036c24.618,-15.822 39.728,-42.976 39.728,-72.356c0,-76.552 -51.844,5.31 -104.574,9.472c-52.316,4.13 -67.312,-40.844 -67.312,-40.844l0,31.372c0,29.416 15.146,56.6 39.752,72.37l0.06,0.04c0.91,0.572 1.824,1.14 2.75,1.686l0.112,0.066l0.11,0.07c19.316,12.172 28.504,25.202 27.582,38.194l0.066,0l0,52.462c0,8.542 6.986,15.528 15.528,15.528c8.542,0 15.528,-6.986 15.528,-15.528l0,-52.462l0.03,0Z" style="fill:#f18a00;"/><path d="M424.003,762.897l0,-31.566c0,8.72 -6.482,15.144 -16.12,15.144l-57.134,0c-16.75,0 -17.44,-15.144 -29.142,-15.144l-52.546,0c-14.226,0 -16.944,13.308 -16.944,13.308l0,18.258l80.88,0l0.246,0.014c1.604,0.09 3.21,0.138 4.816,0.138c1.608,0 3.214,-0.048 4.818,-0.138l0.246,-0.014l80.88,0Z" style="fill:#f18a00;"/><path d="M246.062,331.16l183.998,0c6.528,0 11.87,5.342 11.87,11.872c0,6.528 -5.342,11.87 -11.87,11.87l-183.998,0c-6.53,0 -11.87,-5.342 -11.87,-11.87c0,-6.53 5.34,-11.872 11.87,-11.872" style="fill:#1e2343;"/><path d="M246.062,782.248l183.998,0c6.528,0 11.87,-5.342 11.87,-11.872c0,-6.528 -5.342,-11.87 -11.87,-11.87l-183.998,0c-6.53,0 -11.87,5.342 -11.87,11.87c0,6.53 5.34,11.872 11.87,11.872" style="fill:#1e2343;"/><path d="M376.876,331.16l53.182,0c6.528,0 11.87,5.342 11.87,11.872c0,6.528 -5.342,11.87 -11.87,11.87l-53.182,0c-6.528,0 -11.87,-5.342 -11.87,-11.87c0,-6.53 5.342,-11.872 11.87,-11.872" style="fill:#00000f;"/><path d="M376.876,782.248l53.182,0c6.528,0 11.87,-5.342 11.87,-11.872c0,-6.528 -5.342,-11.87 -11.87,-11.87l-53.182,0c-6.528,0 -11.87,5.342 -11.87,11.87c0,6.53 5.342,11.872 11.87,11.872" style="fill:#00000f;"/><path d="M179.015,697.756c0,-1.194 0.968,-2.162 2.162,-2.162c1.192,0 2.16,0.968 2.16,2.162l0,5.082l5.084,0c1.194,0 2.162,0.968 2.162,2.162c0,1.196 -0.968,2.162 -2.162,2.162l-5.084,0l0,5.082c0,1.196 -0.968,2.162 -2.16,2.162c-1.194,0 -2.162,-0.966 -2.162,-2.162l0,-5.082l-5.084,0c-1.194,0 -2.162,-0.966 -2.162,-2.162c0,-1.194 0.968,-2.162 2.162,-2.162l5.084,0l0,-5.082Z" style="fill:#c0cdea;"/><path d="M478.229,440.764c0,-1.196 0.968,-2.162 2.162,-2.162c1.192,0 2.162,0.966 2.162,2.162l0,5.082l5.082,0c1.194,0 2.162,0.966 2.162,2.162c0,1.194 -0.968,2.162 -2.162,2.162l-5.082,0l0,5.082c0,1.194 -0.97,2.16 -2.162,2.16c-1.194,0 -2.162,-0.966 -2.162,-2.16l0,-5.082l-5.084,0c-1.194,0 -2.162,-0.968 -2.162,-2.162c0,-1.196 0.968,-2.162 2.162,-2.162l5.084,0l0,-5.082Z" style="fill:#c0cdea;"/><path d="M452.529,558.246c0,-1.196 0.968,-2.162 2.162,-2.162c1.194,0 2.162,0.966 2.162,2.162l0,5.082l5.082,0c1.194,0 2.162,0.968 2.162,2.162c0,1.194 -0.968,2.162 -2.162,2.162l-5.082,0l0,5.082c0,1.194 -0.968,2.16 -2.162,2.16c-1.194,0 -2.162,-0.966 -2.162,-2.16l0,-5.082l-5.082,0c-1.194,0 -2.162,-0.968 -2.162,-2.162c0,-1.194 0.968,-2.162 2.162,-2.162l5.082,0l0,-5.082Z" style="fill:#c0cdea;"/><path d="M1201.48,662.879c0,-1.196 0.964,-2.162 2.16,-2.162c1.192,0 2.16,0.966 2.16,2.162l0,5.082l5.082,0c1.196,0 2.164,0.968 2.164,2.162c0,1.194 -0.968,2.162 -2.164,2.162l-5.082,0l0,5.082c0,1.194 -0.968,2.16 -2.16,2.16c-1.196,0 -2.16,-0.966 -2.16,-2.16l0,-5.082l-5.086,0c-1.196,0 -2.16,-0.968 -2.16,-2.162c0,-1.194 0.964,-2.162 2.16,-2.162l5.086,0l0,-5.082Z" style="fill:#c0cdea;"/><path d="M1237.49,734.469c0,-1.194 0.968,-2.162 2.164,-2.162c1.192,0 2.16,0.968 2.16,2.162l0,5.084l5.082,0c1.196,0 2.164,0.966 2.164,2.16c0,1.194 -0.968,2.162 -2.164,2.162l-5.082,0l0,5.084c0,1.192 -0.968,2.16 -2.16,2.16c-1.196,0 -2.164,-0.968 -2.164,-2.16l0,-5.084l-5.082,0c-1.192,0 -2.16,-0.968 -2.16,-2.162c0,-1.194 0.968,-2.16 2.16,-2.16l5.082,0l0,-5.084Z" style="fill:#fff;"/><path d="M506.894,567.424c0,-1.194 0.966,-2.162 2.162,-2.162c1.192,0 2.16,0.968 2.16,2.162l0,5.082l5.084,0c1.194,0 2.16,0.966 2.16,2.162c0,1.194 -0.966,2.16 -2.16,2.16l-5.084,0l0,5.084c0,1.194 -0.968,2.162 -2.16,2.162c-1.196,0 -2.162,-0.968 -2.162,-2.162l0,-5.084l-5.084,0c-1.194,0 -2.162,-0.966 -2.162,-2.16c0,-1.196 0.968,-2.162 2.162,-2.162l5.084,0l0,-5.082Z" style="fill:#fff;"/><path d="M86.527,654.883c0,-1.194 0.968,-2.16 2.162,-2.16c1.194,0 2.162,0.966 2.162,2.16l0,5.082l5.082,0c1.194,0 2.162,0.968 2.162,2.162c0,1.196 -0.968,2.162 -2.162,2.162l-5.082,0l0,5.084c0,1.194 -0.968,2.162 -2.162,2.162c-1.194,0 -2.162,-0.968 -2.162,-2.162l0,-5.084l-5.084,0c-1.192,0 -2.162,-0.966 -2.162,-2.162c0,-1.194 0.97,-2.162 2.162,-2.162l5.084,0l0,-5.082Z" style="fill:#fff;"/><path d="M609.314,340.569c3.878,1.934 5.93,6.702 4.582,10.648c-1.35,3.95 -5.586,5.584 -9.462,3.65c-3.88,-1.93 -5.93,-6.698 -4.582,-10.648c1.346,-3.946 5.586,-5.582 9.462,-3.65" style="fill:#e9695b;"/><path d="M631.998,425.694c0,0 7.882,4.022 -0.028,4.578c-7.906,0.556 -90.308,-32.216 -96.488,-38.294c-6.176,-6.08 -29.01,-55.234 -27.526,-66.742c10.738,-0.988 14.382,-4.16 15.562,-0.85c2.694,7.536 19.918,42.228 25.506,50.846c5.072,7.824 33.838,15.154 60.794,10.496l0,27.84l24.824,0c-1.242,4.354 -2.276,8.538 -2.644,12.126" style="fill:#00000f;"/><path d="M640.557,360.069l-0.844,6.754c0,0 -1.18,14.43 -1.308,15.994c-0.13,1.562 0.476,2.144 2.046,3.56c1.86,4.188 -5.742,20.966 -10.202,21.286c-4.462,0.322 -24.628,-3.084 -25.954,-4.422c-0.928,-0.936 10.758,-15.136 10.374,-17.658c0.92,-0.176 1.754,-0.418 2.47,-0.99c4.656,-3.722 5.062,-14.944 2.278,-19.15c-2.078,-3.144 21.14,-5.374 21.14,-5.374" style="fill:#e9695b;"/><path d="M598.593,409.309c3.878,-2.016 5.834,0.054 9.486,4.706c3.65,4.65 7.48,4.54 9.618,5.67c2.134,1.13 -1.22,41.17 -16.196,46.118c-5.538,1.83 -8.674,-0.798 -10.35,-5.734c-3.006,-8.862 -2.646,-45.516 7.442,-50.76" style="fill:#f6f5f4;"/><path d="M576.189,543.631l-3.272,3.988c0,0 2.144,34.876 7.052,79.872c4.908,44.996 14.318,126.65 14.11,134.628c-0.202,7.976 12.14,3.36 13.672,1.11c1.536,-2.25 -3.854,-161.102 -2.628,-175.624c0.428,-5.066 8.092,-3.164 11.076,6.93c5.57,18.832 8.054,58.58 9.784,81.218c2.656,34.768 7.508,87.894 7.156,90.706c-0.348,2.814 10.84,5.626 13.09,1.128c0,0 0.46,-0.666 0.308,-3.07c-0.152,-2.404 2.25,-220.942 -0.612,-226.874c-2.864,-5.932 -62.996,-8.796 -69.736,5.988" style="fill:#00000f;"/><path d="M650.069,541.94c-3.774,7.174 -19.718,10.918 -32.196,12.016l-0.012,0c-2.99,0.264 -5.782,0.374 -8.158,0.344c-1.588,-0.022 -3.016,-0.228 -4.3,-0.594c-13.394,-1.194 -23.218,-5.166 -29.084,-8.274c-3.612,-0.63 -5.506,-2.094 -6.366,-4.006l-0.002,-0.002l0,-0.002c-1.394,-3.114 -0.054,-7.42 1.06,-11.268c2.002,-6.918 10.324,-19.978 11.76,-53.426c1.434,-33.45 -0.124,-90.9 32.326,-92.004c0,0 -0.41,0.782 -1.07,2.226l1.328,0.188c0,0 -4.004,9.83 1.638,13.714c5.642,3.884 12.704,-0.172 15.982,-3.768c0.472,-0.52 0.988,-0.712 1.528,-0.664c2.308,-2.67 4.824,-5.348 7.582,-8.044c6.672,1.83 16.84,8.444 16.84,8.444c5.148,3.192 11.436,8.656 11.832,14.82c0.554,8.748 -11.492,37.908 -18.938,56.19c-12.458,30.61 4.622,62.008 -1.75,74.11" style="fill:#fff;"/><path d="M597.997,764.196c0,0 -2.692,-1.83 -5.598,-1.084c-2.904,0.746 -19.696,8.678 -22.39,9.762c-2.692,1.086 -5.526,5.22 -3.4,7.594c2.124,2.372 16.296,2.1 23.806,0.608c7.512,-1.492 13.32,-0.474 16.086,-0.27c2.764,0.202 6,-5.786 3.33,-14.44c-2.67,-8.654 -1.842,-0.61 -11.834,-2.17" style="fill:#004c84;"/><path d="M566.158,776.953c-0.458,1.244 -0.43,2.532 0.45,3.514c1.174,1.31 6.022,1.812 11.392,1.752c12.356,-0.144 16.36,0.01 30.096,0.01c2.256,0 2.068,-3.62 2.592,-7.518c-2.056,2.85 -5.614,3.092 -12.414,2.556c-7.032,-0.552 -13.488,1.29 -22.352,2.122c-6.196,0.578 -8.774,-1.272 -9.764,-2.436" style="fill:#fff;"/><path d="M634.33,766.502c0,0 4.882,-5.628 10.848,-1.154c0,0 3.254,1.22 4.472,4.068c1.22,2.848 3.528,4.134 3.934,7.254c0.406,3.12 -0.544,5.558 -4.812,5.558l-6.918,0c-3.048,0 -7.59,0.476 -9.152,-3.322c-1.556,-3.794 0,-7.252 -0.54,-9.218c-0.542,-1.968 2.168,-3.186 2.168,-3.186" style="fill:#004c84;"/><path d="M653.643,777.26c0.21,2.83 -0.874,4.968 -4.872,4.968l-6.918,0c-3.046,0 -7.588,0.476 -9.152,-3.322c-0.35,-0.862 -0.546,-1.706 -0.636,-2.522c0.016,0.024 1.788,2.45 7.66,2.818c5.898,0.368 12.906,0.446 13.918,-1.942" style="fill:#fff;"/><path d="M611.529,385.102c0,0 3.172,-1.826 5.61,-0.51c0,0 -6.614,10.418 -0.396,16.08c6.22,5.662 20.876,-5.242 23.708,-14.294c0,0 3.086,0.442 4.658,3.038c0,0 -5.658,14.142 -20.146,17.502c-14.492,3.36 -19.21,-11.06 -13.434,-21.816" style="fill:#c0cdea;"/><path d="M645.104,389.414c0,0 -18.046,29.772 -24.622,80.782c-6.574,51.01 -7.162,85.484 29.138,100.13c0,0 1.688,0.636 3.222,-2.964c7.278,-17.054 -7.788,-83.05 12.262,-128.45c11.73,-26.552 6.61,-40.982 -20,-49.498" style="fill:#00000f;"/><path d="M611.529,385.102c0,0 -8.736,15.764 -11.304,48.514c-2.57,32.748 -11.05,88.592 -13.576,100.134c-2.528,11.546 -11.206,23.5 -15.52,24.638c0,0 -5.828,1.386 -6.21,-7.584c-0.384,-8.974 15.902,-50.106 15.714,-81.164c-0.188,-31.06 4.51,-82.33 30.896,-84.538" style="fill:#00000f;"/><path d="M622.178,458.883c0,0 20.644,-63.448 29.824,-67.002c0,0 -4.278,-3.726 -5.196,-3.924c-0.914,-0.2 -13.578,12.67 -24.628,70.926" style="fill:#1c2b3f;"/><path d="M611.556,385.086c0,0 -8.468,22.788 -11.95,56.476c-0.384,3.728 -0.896,7.496 -1.194,11.238c-0.054,0.66 -0.226,1.272 -0.258,1.93c0,0 0.154,-31.01 3.912,-48.086c3.758,-17.078 2.916,-19.834 2.916,-19.834c0,0 2.128,-2.352 6.574,-1.724" style="fill:#1c2b3f;"/><path d="M611.052,311.947c0,0 -4.954,3.974 -5.672,7.526c-0.718,3.552 1.298,19.682 0.886,22.028c-0.41,2.35 3.54,2.358 4.506,-0.906c0.968,-3.266 13.352,-20.94 0.28,-28.648" style="fill:#00000f;"/><path d="M660.983,349.219c4.168,0.73 6.958,4.704 6.226,8.872c-0.73,4.17 -4.698,6.958 -8.87,6.228c-4.168,-0.728 -6.958,-4.702 -6.23,-8.872c0.734,-4.168 4.702,-6.956 8.874,-6.228" style="fill:#e9695b;"/><path d="M640.076,306.211c14.222,2.488 23.824,16.162 21.336,30.384l-4.114,23.502c-2.488,14.226 -16.164,23.824 -30.386,21.336c-14.222,-2.488 -23.824,-16.162 -21.336,-30.384l4.114,-23.502c2.488,-14.224 16.16,-23.824 30.386,-21.336" style="fill:#f5ac83;"/><path d="M661.768,330.774c0.098,1.912 -0.016,3.862 -0.36,5.822l-4.108,23.502c-2.492,14.224 -16.164,23.824 -30.388,21.336c28.594,-0.616 29.138,-38.228 21.164,-42.766c-7.976,-4.542 -29.21,-7.376 -34.294,-7.316c-4.25,0.052 -5.262,3.106 -5.478,4.106l1.384,-7.91c0.512,-2.918 1.496,-5.642 2.854,-8.106c5.312,0.15 18.858,3.37 31.332,5.552c7.156,1.252 13.07,3.44 17.894,5.78" style="fill:#ee9073;"/><path d="M634.871,366.242c-0.614,3.504 -3.954,5.85 -7.458,5.236c-3.506,-0.612 -5.85,-3.952 -5.238,-7.458l0.012,0.002c0.106,-0.602 0.684,-1.01 1.29,-0.904l10.48,1.832c0.602,0.106 1.008,0.686 0.902,1.288l0.012,0.004Z" style="fill:#fff;"/><path d="M638.342,520.879c-0.152,-0.968 -1.062,-1.628 -2.032,-1.474c-0.968,0.152 -1.628,1.062 -1.476,2.03c0.012,0.054 2.962,19 11.55,25.108c0.798,0.568 1.908,0.382 2.478,-0.418c0.566,-0.796 0.378,-1.906 -0.418,-2.474c-7.364,-5.238 -10.094,-22.724 -10.102,-22.772" style="fill:#1c2b3f;"/><path d="M576.376,509.52c0.136,-0.87 0.954,-1.462 1.82,-1.324c0.87,0.138 1.462,0.952 1.324,1.822c-0.008,0.048 -2.656,17.046 -10.36,22.528c-0.718,0.51 -1.712,0.342 -2.224,-0.376c-0.51,-0.716 -0.342,-1.71 0.376,-2.22c6.606,-4.7 9.056,-20.388 9.064,-20.43" style="fill:#1c2b3f;"/><path d="M511.544,321.957c0,0 -0.216,-1.674 -2.134,-5.022c-1.916,-3.348 -1.178,-5.408 -1.814,-8.404c-0.634,-2.998 0.614,-8.908 0.76,-11.878c0.146,-2.972 8.5,-6.872 10.34,-8.758c1.84,-1.888 3.432,1.138 1.946,3.21c0,0 0.68,1.97 -1.706,3.738c-2.386,1.768 -0.362,4.46 1.118,5.212c1.482,0.752 2.036,-0.486 4.046,-1.838c2.008,-1.35 2.448,-2.218 3.42,-1.436c0.974,0.786 1.818,2.648 -0.916,4.876c-2.736,2.228 -3.274,6.508 -4.532,9.666c-1.26,3.156 -1.642,5.77 -1.518,8c0.676,1.91 -7.856,6.584 -9.01,2.634" style="fill:#f5ac83;"/><path d="M663.615,307.307c-0.222,-0.086 -0.45,-0.162 -0.676,-0.226c-0.054,-2.332 -1.496,-4.512 -3.808,-5.4c-1.726,-0.664 -3.574,-0.464 -5.07,0.388c-1.184,-2.474 -3.282,-4.52 -6.048,-5.58c-2.03,-0.782 -4.148,-0.924 -6.136,-0.532c-0.742,-2.692 -2.712,-5.01 -5.52,-6.09c-1.644,-0.63 -3.36,-0.754 -4.972,-0.442c-1.344,-1.012 -2.848,-1.856 -4.496,-2.492c-9.5,-3.644 -20.164,1.104 -23.81,10.606c-3.234,8.428 0.136,17.768 7.568,22.314c0.304,3.378 2.476,6.452 5.854,7.748c2.746,1.058 5.692,0.7 8.032,-0.71c0.922,1.032 2.098,1.866 3.48,2.396c2.642,1.012 5.462,0.7 7.734,-0.61c1.396,2.118 3.446,3.838 5.996,4.816c4.958,1.902 10.372,0.464 13.766,-3.206l0.246,-0.01c-3.73,4.192 -0.182,10.994 -0.182,10.994c-2.892,8.788 2.472,14.556 2.472,14.556c0.574,-7.34 4.394,-6.18 4.394,-6.18c13.636,-20.348 4.414,-28.7 4.414,-28.7c0.054,-0.126 0.106,-0.254 0.156,-0.378c0.594,-0.704 1.086,-1.514 1.434,-2.424c1.66,-4.326 -0.5,-9.178 -4.828,-10.838" style="fill:#080321;"/><path d="M602.232,300.44c-1.566,7.59 1.828,15.384 8.416,19.414c0.304,3.378 2.476,6.452 5.854,7.748c2.746,1.056 5.692,0.7 8.032,-0.71c0.922,1.03 2.098,1.864 3.48,2.396c2.64,1.012 5.462,0.698 7.734,-0.612c1.396,2.12 3.446,3.838 5.996,4.816c4.958,1.904 10.372,0.466 13.766,-3.204l0.246,-0.01c-3.73,4.192 -0.184,10.994 -0.184,10.994c-2.89,8.788 2.474,14.554 2.474,14.554c0.574,-7.34 4.394,-6.178 4.394,-6.178c13.636,-20.348 4.414,-28.7 4.414,-28.7c0.054,-0.128 0.106,-0.254 0.156,-0.38c0.594,-0.702 1.086,-1.512 1.434,-2.422c0.786,-2.05 0.714,-4.218 -0.04,-6.108c-0.006,0.016 -0.01,0.028 -0.01,0.034c0.254,8.822 -21.22,21.69 -29.614,9.426c0,0 -9.204,5.122 -12.914,0.026c-6.516,6.078 -13.652,-1.466 -12.174,-6.206c0,0 -12.68,-0.838 -11.46,-14.878" style="fill:#00000f;"/><path d="M664.311,401.352c0,0 -2.016,-4.458 5.524,4.326c5.386,6.274 13.94,50.786 16.91,70.454c2.968,19.704 0.8,19.248 -12.114,35.716c-9.452,12.052 -21.198,25.212 -25.816,27.258c0,0 -0.898,0.348 -1.136,-0.9c-0.24,-1.246 -0.032,-5.68 -1.516,-6.966c-1.484,-1.284 -0.414,-2.346 1.308,-3.426c1.722,-1.078 19.548,-30.586 23.222,-38.172c3.676,-7.586 -19.452,-53.086 -20.644,-58.858c-1.188,-5.772 0.996,-23.148 14.262,-29.432" style="fill:#00000f;"/><path d="M520.296,324.572c-0.388,-3.292 0.744,-5.788 1.756,-7.242c1.014,-1.456 3.238,-3.536 4.534,-7.384c1.294,-3.85 -0.482,-3.532 -2.108,-1.814c-1.628,1.72 -4.202,3.556 -4.202,3.556c0,0 -2.054,-7.478 -2.62,-10.636c-0.568,-3.158 -2.668,-4.36 -3.606,-2.766c-0.936,1.596 -0.354,1.998 -1.096,1.828c-0.746,-0.172 -1.514,-0.186 -2.008,1.022l-0.496,1.21c0,0 -1.404,-0.718 -2.15,0.234c-0.746,0.948 -0.764,2.836 -0.764,2.836c0,0 -1.982,-0.256 -2.176,0.644c-0.194,0.9 0.548,7.036 1.842,10.266c1.292,3.232 3.856,7.868 3.968,10.19c0.11,2.324 9.126,-1.944 9.126,-1.944" style="fill:#f5ac83;"/><path d="M520.296,324.572c-0.298,-2.534 0.302,-4.594 1.058,-6.072c-3.838,2.606 -8.348,1.698 -11.424,-1.79c-1.07,-1.214 -2.48,-2.93 -3.912,-4.712c0.308,1.564 0.708,3.142 1.184,4.328c1.292,3.232 3.856,7.868 3.968,10.19c0.11,2.324 9.126,-1.944 9.126,-1.944" style="fill:#ed7862;"/><path d="M509.734,294.338c2.482,-2.452 7.576,-5.02 8.962,-6.444c1.84,-1.886 3.434,1.14 1.948,3.212c0,0 0.678,1.968 -1.708,3.738c-1.7,1.26 -1.16,2.99 -0.174,4.152c-1.08,0.732 -3.488,1.23 -4.366,0.214c-0.778,-0.9 -3.408,-3.284 -4.662,-4.872" style="fill:#f5ac83;"/><path d="M511.268,293.028c0.668,-0.51 1.402,-1.018 2.142,-1.508c2.358,-0.842 6.766,-1.95 7.818,-2.21c-0.002,0.59 -0.178,1.228 -0.586,1.796c0,0 0.68,1.97 -1.706,3.738c-0.118,0.088 -0.224,0.176 -0.322,0.27l-0.002,0l-0.01,0.01c-0.118,0.112 -0.222,0.23 -0.31,0.348c-0.558,0.662 -1.69,2.21 -2.168,4.312c-0.706,0.018 -1.356,-0.14 -1.73,-0.572c-0.652,-0.758 -2.612,-2.56 -3.966,-4.058c0.198,-0.742 0.466,-1.508 0.84,-2.126" style="fill:#f5ac83;"/><path d="M490.556,195.983l185.7,0c10.384,0 18.876,8.492 18.876,18.874l0,81.586c0,10.38 -8.492,18.874 -18.876,18.874l-185.7,0c-10.38,0 -18.874,-8.494 -18.874,-18.874l0,-81.586c0,-10.382 8.494,-18.874 18.874,-18.874" style="fill:#fcc100;"/><path d="M676.256,204.67l-185.7,0c-2.8,0 -5.346,1.146 -7.194,2.994c-1.846,1.846 -2.992,4.392 -2.992,7.192l0,81.588c0,2.798 1.146,5.348 2.992,7.192c1.846,1.846 4.394,2.992 7.194,2.992l185.7,0c2.8,0 5.348,-1.148 7.192,-2.994c1.848,-1.844 2.996,-4.392 2.996,-7.19l0,-81.588c0,-2.804 -1.148,-5.35 -2.988,-7.192l-0.008,-0.006c-1.844,-1.844 -4.392,-2.988 -7.192,-2.988m-185.7,-2.3l185.7,0c3.43,0 6.55,1.404 8.816,3.666l0.004,0.006c2.266,2.264 3.668,5.386 3.668,8.814l0,81.588c0,3.434 -1.406,6.556 -3.668,8.818c-2.262,2.264 -5.382,3.668 -8.82,3.668l-185.7,0c-3.432,0 -6.552,-1.404 -8.816,-3.668l-0.004,-0.004c-2.262,-2.262 -3.668,-5.382 -3.668,-8.814l0,-81.588c0,-3.434 1.406,-6.558 3.668,-8.82c2.262,-2.262 5.386,-3.666 8.82,-3.666" style="fill:#fff;"/><path d="M512.903,232.332c4.691,0 8.357,1.674 11,5.021c3.15,3.965 4.724,10.538 4.724,19.722c0,9.162 -1.585,15.747 -4.757,19.755c-2.621,3.303 -6.276,4.955 -10.967,4.955c-4.713,0 -8.512,-1.811 -11.397,-5.434c-2.885,-3.623 -4.328,-10.081 -4.328,-19.375c0,-9.118 1.586,-15.68 4.757,-19.689c2.621,-3.303 6.277,-4.955 10.968,-4.955Zm0,7.697c-1.123,0 -2.126,0.358 -3.006,1.074c-0.881,0.716 -1.564,1.998 -2.049,3.848c-0.638,2.401 -0.958,6.442 -0.958,12.124c0,5.682 0.287,9.586 0.859,11.711c0.573,2.125 1.294,3.54 2.164,4.245c0.87,0.705 1.867,1.057 2.99,1.057c1.123,0 2.125,-0.358 3.006,-1.074c0.881,-0.715 1.563,-1.998 2.048,-3.848c0.639,-2.379 0.958,-6.409 0.958,-12.091c0,-5.682 -0.286,-9.585 -0.859,-11.711c-0.573,-2.125 -1.294,-3.545 -2.164,-4.261c-0.87,-0.716 -1.866,-1.074 -2.989,-1.074Z" style="fill:#fff;fill-rule:nonzero;"/><path d="M536.673,268.505l9.25,-0.958c0.264,2.092 1.046,3.75 2.345,4.972c1.3,1.222 2.797,1.833 4.493,1.833c1.938,0 3.579,-0.787 4.922,-2.362c1.344,-1.574 2.015,-3.947 2.015,-7.119c0,-2.973 -0.666,-5.203 -1.998,-6.689c-1.333,-1.487 -3.067,-2.23 -5.203,-2.23c-2.665,0 -5.054,1.178 -7.169,3.535l-7.532,-1.091l4.757,-25.205l24.545,0l0,8.688l-17.508,0l-1.454,8.226c2.07,-1.035 4.185,-1.553 6.343,-1.553c4.118,0 7.609,1.498 10.472,4.493c2.863,2.995 4.294,6.882 4.294,11.661c0,3.986 -1.156,7.543 -3.468,10.67c-3.15,4.273 -7.521,6.409 -13.115,6.409c-4.471,0 -8.115,-1.2 -10.934,-3.601c-2.819,-2.4 -4.504,-5.627 -5.055,-9.679Z" style="fill:#fff;fill-rule:nonzero;"/><rect x="577.853" y="271.676" width="9.283" height="9.283" style="fill:#fff;fill-rule:nonzero;"/><path d="M612.063,232.332c4.691,0 8.357,1.674 11,5.021c3.149,3.965 4.724,10.538 4.724,19.722c0,9.162 -1.586,15.747 -4.757,19.755c-2.621,3.303 -6.276,4.955 -10.967,4.955c-4.713,0 -8.512,-1.811 -11.397,-5.434c-2.885,-3.623 -4.328,-10.081 -4.328,-19.375c0,-9.118 1.586,-15.68 4.757,-19.689c2.621,-3.303 6.277,-4.955 10.968,-4.955Zm0,7.697c-1.124,0 -2.126,0.358 -3.007,1.074c-0.88,0.716 -1.563,1.998 -2.048,3.848c-0.638,2.401 -0.958,6.442 -0.958,12.124c0,5.682 0.287,9.586 0.859,11.711c0.573,2.125 1.294,3.54 2.164,4.245c0.87,0.705 1.866,1.057 2.99,1.057c1.123,0 2.125,-0.358 3.006,-1.074c0.881,-0.715 1.563,-1.998 2.048,-3.848c0.639,-2.379 0.958,-6.409 0.958,-12.091c0,-5.682 -0.286,-9.585 -0.859,-11.711c-0.573,-2.125 -1.294,-3.545 -2.164,-4.261c-0.87,-0.716 -1.866,-1.074 -2.989,-1.074Z" style="fill:#fff;fill-rule:nonzero;"/><path d="M651.392,232.332c4.691,0 8.358,1.674 11.001,5.021c3.149,3.965 4.724,10.538 4.724,19.722c0,9.162 -1.586,15.747 -4.757,19.755c-2.621,3.303 -6.277,4.955 -10.968,4.955c-4.712,0 -8.511,-1.811 -11.396,-5.434c-2.886,-3.623 -4.328,-10.081 -4.328,-19.375c0,-9.118 1.586,-15.68 4.757,-19.689c2.621,-3.303 6.277,-4.955 10.967,-4.955Zm0,7.697c-1.123,0 -2.125,0.358 -3.006,1.074c-0.881,0.716 -1.563,1.998 -2.048,3.848c-0.639,2.401 -0.958,6.442 -0.958,12.124c0,5.682 0.286,9.586 0.859,11.711c0.573,2.125 1.294,3.54 2.164,4.245c0.87,0.705 1.866,1.057 2.989,1.057c1.124,0 2.126,-0.358 3.007,-1.074c0.881,-0.715 1.563,-1.998 2.048,-3.848c0.638,-2.379 0.958,-6.409 0.958,-12.091c0,-5.682 -0.287,-9.585 -0.859,-11.711c-0.573,-2.125 -1.294,-3.545 -2.164,-4.261c-0.87,-0.716 -1.866,-1.074 -2.99,-1.074Z" style="fill:#fff;fill-rule:nonzero;"/><path d="M521.299,318.608c0.242,-0.488 0.122,-0.37 0.752,-1.278c0.634,-0.908 2.092,-4.434 4.214,-6.742c2.562,-2.786 -1.446,-2.816 -1.788,-2.454c-1.048,1.106 -3.546,3.09 -4.438,3.772c-4.772,0.99 -14.498,0.484 -12.962,4.344c0.64,1.612 5.25,10.5 14.222,2.358" style="fill:#f5ac83;"/><path d="M521.299,318.608l0.054,-0.11l-0.096,0.064l0.042,0.046Z" style="fill:#ed7862;"/></g></svg>