<?xml version="1.0" encoding="UTF-8" standalone="no"?><!DOCTYPE svg PUBLIC "-//W3C//DTD SVG 1.1//EN" "http://www.w3.org/Graphics/SVG/1.1/DTD/svg11.dtd"><svg width="100%" height="100%" viewBox="0 0 1393 1464" version="1.1" xmlns="http://www.w3.org/2000/svg" xmlns:xlink="http://www.w3.org/1999/xlink" xml:space="preserve" xmlns:serif="http://www.serif.com/" style="fill-rule:evenodd;clip-rule:evenodd;stroke-linejoin:round;stroke-miterlimit:2;"><g><rect x="326.718" y="0" width="722.048" height="157.08" style="fill:#82b2aa;"/><path d="M369.038,134.752c0.834,-0.172 1.666,-0.344 2.5,-0.344c0.666,0 1.166,0 1.166,-0.174c1,3.624 2.166,6.73 3.832,9.49c1.498,2.934 3.498,5.176 5.83,7.248c2.334,2.07 5.166,3.45 8.33,4.486c3,1.034 6.666,1.552 10.664,1.552l1.5,0c0.666,0 1.166,-0.172 1.666,-0.172l0,-19.324c-1.5,-0.174 -3,-0.518 -4.832,-0.864c-1.666,-0.344 -3.332,-1.034 -4.832,-1.724c-1.666,-0.864 -2.998,-2.072 -4.166,-3.624c-1.166,-1.552 -1.998,-3.624 -2.498,-6.212c3.166,-3.278 5.83,-7.246 7.83,-11.904c2.166,-4.66 3.666,-9.662 4.832,-15.184c1.332,-5.522 2.166,-11.216 2.666,-17.082c0.5,-6.038 0.666,-11.904 0.666,-17.77c0,-5.694 -0.334,-11.216 -1,-16.564c-0.666,-5.35 -1.666,-10.352 -2.998,-15.012c-1.334,-4.658 -3.166,-8.972 -5.332,-12.94c-2,-3.796 -4.498,-7.074 -7.498,-9.834c-2.832,-2.934 -5.998,-5.004 -9.662,-6.556c-3.666,-1.554 -7.83,-2.244 -12.33,-2.244c-4.498,0 -8.662,0.69 -12.328,2.244c-3.666,1.552 -6.83,3.622 -9.662,6.556c-2.834,2.76 -5.332,6.038 -7.498,9.834c-2.166,3.968 -3.832,8.282 -5.164,12.94c-1.334,4.66 -2.334,9.662 -3,15.012c-0.666,5.348 -1,10.87 -1,16.564c0,5.52 0.168,11.386 0.666,17.08c0.5,5.694 1.168,11.388 2.334,16.564c1,5.348 2.498,10.352 4.332,15.012c1.832,4.658 4.164,8.626 6.996,12.076c3,3.452 6.332,6.04 10.33,8.11c3.998,1.898 8.664,2.934 13.994,2.934c1.334,0 2.5,-0.174 3.666,-0.174Zm-11.828,-25.19c-2,-2.588 -3.332,-6.038 -4.332,-10.524c-0.834,-4.486 -1.334,-9.836 -1.5,-15.874c-0.166,-6.212 -0.334,-12.768 -0.334,-20.014c0,-2.416 0,-5.178 0.168,-8.11c0,-3.106 0.166,-6.212 0.332,-9.318c0.334,-3.278 0.668,-6.384 1.334,-9.488c0.5,-2.934 1.332,-5.694 2.498,-8.11c1,-2.416 2.334,-4.314 4,-5.694c1.666,-1.552 3.664,-2.244 5.996,-2.244c2.334,0 4.332,0.692 5.998,2.244c1.666,1.38 3,3.278 4.166,5.694c1,2.416 1.832,5.176 2.498,8.11c0.5,3.104 1,6.21 1.168,9.488c0.332,3.106 0.498,6.212 0.498,9.318c0.168,2.932 0.168,5.694 0.168,8.11c0,7.246 -0.168,13.802 -0.334,20.014c-0.166,6.038 -0.666,11.388 -1.666,15.874c-0.832,4.486 -2.332,7.936 -4.332,10.524c-1.832,2.588 -4.664,3.796 -8.164,3.796c-3.498,0 -6.33,-1.208 -8.162,-3.796Z" style="fill:#6d9e95;fill-rule:nonzero;"/><path d="M421.686,89.548c0,6.038 0.666,11.904 1.998,17.426c1.334,5.522 3.5,10.352 6.332,14.494c2.832,4.14 6.498,7.418 10.83,9.834c4.498,2.416 9.662,3.624 15.66,3.624c6.498,0 11.996,-0.864 16.328,-2.588c4.498,-1.554 8.162,-3.796 10.996,-6.558c2.832,-2.76 4.998,-5.866 6.496,-9.49c1.5,-3.45 2.666,-7.074 3.332,-10.524c0.668,-3.624 1,-7.074 1.168,-10.352c0.166,-3.45 0.166,-6.384 0.166,-8.8l0,-83.854l-22.492,2.072l0,86.44c0,2.59 0,5.178 -0.166,7.766c-0.168,2.588 -0.5,5.002 -1.334,7.074c-0.832,2.07 -2.166,3.796 -3.832,5.176c-1.666,1.38 -4.164,2.07 -7.33,2.07c-3.332,0 -5.998,-0.69 -7.83,-1.898c-1.834,-1.38 -3.166,-3.106 -3.998,-5.176c-1,-2.07 -1.5,-4.486 -1.668,-7.074c-0.166,-2.588 -0.166,-5.004 -0.166,-7.592l0,-88.858l-24.49,1.036l0,85.752Z" style="fill:#6d9e95;fill-rule:nonzero;"/><path d="M517.15,133.2l24.492,-2.07l0,-128.37l-24.492,2.072l0,128.368Z" style="fill:#6d9e95;fill-rule:nonzero;"/><path d="M557.302,116.118l0,16.046l69.142,0l3.832,-20.186l-42.818,0l41.818,-92.482l0,-16.736l-66.142,0l-2,20.188l39.318,0l-43.15,93.17Z" style="fill:#6d9e95;fill-rule:nonzero;"/><path d="M703.582,22.948l0,110.252l24.324,-2.07l0,-108.182l23.324,0l2,-20.188l-73.14,0l-2,20.188l25.492,0Z" style="fill:#6d9e95;fill-rule:nonzero;"/><path d="M766.724,133.2l24.492,-2.07l0,-128.37l-24.492,2.072l0,128.368Z" style="fill:#6d9e95;fill-rule:nonzero;"/><path d="M859.358,132.164l15.16,0l23.324,-96.104l0,97.14l25.158,-2.07l0,-127.334l-32.488,2.07l-19.992,77.126l-20.66,-80.058l-35.652,1.034l0,128.196l20.158,-1.034l0,-95.414l24.992,96.448Z" style="fill:#6d9e95;fill-rule:nonzero;"/><path d="M946.158,132.164l62.81,0l2,-20.186l-40.318,0l0,-36.406l26.156,0l0,-21.74l-26.156,0l0,-30.884l36.986,0l2,-20.188l-63.478,0l0,129.404Z" style="fill:#6d9e95;fill-rule:nonzero;"/><path d="M1029.29,94.378l15.662,0l3.832,-91.618l-23.492,0l3.998,91.618Zm19.494,37.786l0,-25.19l-23.492,0l0,26.226l23.492,-1.036Z" style="fill:#6d9e95;fill-rule:nonzero;"/><path d="M1093.9,1164.39l-751.824,39.398l-50.99,-972.948l751.822,-39.4l50.992,972.95Z" style="fill:#e5e5e5;fill-rule:nonzero;"/><rect x="1119.27" y="376.636" width="50.002" height="693.592" style="fill:#fdbb39;"/><rect x="1119.27" y="1028.55" width="50.002" height="41.668" style="fill:#e5e5e5;"/><path d="M1169.27,1070.22l0,33.032c0,4.77 -3.868,8.638 -8.642,8.638l-32.718,0c-4.774,0 -8.642,-3.868 -8.642,-8.638l0,-33.032l50.002,0Z" style="fill:#f48380;fill-rule:nonzero;"/><path d="M1119.27,376.636l25,-93.302l25.002,93.302l-50.002,0Z" style="fill:#e7a36e;fill-rule:nonzero;"/><rect x="1119.27" y="376.636" width="25" height="651.918" style="fill:#ffcf6c;"/><rect x="1119.27" y="1028.55" width="25" height="41.668" style="fill:#ecedec;"/><path d="M1144.27,1111.89l-16.358,0c-4.774,0 -8.642,-3.868 -8.642,-8.638l0,-33.032l25,0l0,41.67Z" style="fill:#f7a2a0;fill-rule:nonzero;"/><clipPath id="_clip1"><path d="M1119.27,376.636l25,-93.302l25.002,93.302l-50.002,0Z"/></clipPath><g clip-path="url(#_clip1)"><rect x="1128.39" y="283.334" width="31.758" height="31.254" style="fill:#24282a;"/></g><rect x="316.064" y="210.468" width="752.854" height="974.286" style="fill:#fefefe;"/><rect x="424.594" y="319" width="535.792" height="12" style="fill:#bcbebd;"/><rect x="424.594" y="343" width="535.792" height="12" style="fill:#bcbebd;"/><rect x="424.594" y="367" width="535.792" height="12" style="fill:#bcbebd;"/><path d="M430.594,438.832l17.832,0l0,-17.832l-17.832,0l0,17.832Zm23.832,6l-29.832,0l0,-29.832l29.832,0l0,29.832Z" style="fill:#bcbebd;fill-rule:nonzero;"/><rect x="478.426" y="423.916" width="214.064" height="12" style="fill:#bcbebd;"/><path d="M430.594,480.664l17.832,0l0,-17.832l-17.832,0l0,17.832Zm23.832,6l-29.832,0l0,-29.832l29.832,0l0,29.832Z" style="fill:#bcbebd;fill-rule:nonzero;"/><rect x="478.426" y="465.748" width="214.064" height="12" style="fill:#bcbebd;"/><path d="M430.594,522.496l17.832,0l0,-17.832l-17.832,0l0,17.832Zm23.832,6l-29.832,0l0,-29.832l29.832,0l0,29.832Z" style="fill:#bcbebd;fill-rule:nonzero;"/><rect x="478.426" y="507.58" width="214.064" height="12" style="fill:#bcbebd;"/><rect x="424.594" y="866.726" width="535.792" height="12" style="fill:#bcbebd;"/><rect x="424.594" y="890.726" width="535.792" height="12" style="fill:#bcbebd;"/><rect x="424.594" y="914.728" width="535.792" height="11.998" style="fill:#bcbebd;"/><path d="M430.594,986.56l17.832,0l0,-17.834l-17.832,0l0,17.834Zm23.832,6l-29.832,0l0,-29.834l29.832,0l0,29.834Z" style="fill:#bcbebd;fill-rule:nonzero;"/><rect x="478.426" y="971.644" width="214.064" height="12" style="fill:#bcbebd;"/><path d="M430.594,1028.39l17.832,0l0,-17.832l-17.832,0l0,17.832Zm23.832,6l-29.832,0l0,-29.832l29.832,0l0,29.832Z" style="fill:#bcbebd;fill-rule:nonzero;"/><rect x="478.426" y="1013.48" width="214.064" height="12" style="fill:#bcbebd;"/><path d="M430.594,1070.22l17.832,0l0,-17.832l-17.832,0l0,17.832Zm23.832,6l-29.832,0l0,-29.832l29.832,0l0,29.832Z" style="fill:#bcbebd;fill-rule:nonzero;"/><rect x="478.426" y="1055.31" width="214.064" height="12" style="fill:#bcbebd;"/><rect x="424.594" y="592.862" width="535.792" height="12.002" style="fill:#bcbebd;"/><rect x="424.594" y="616.864" width="535.792" height="11.996" style="fill:#bcbebd;"/><path d="M430.594,712.7l17.832,0l0,-17.832l-17.832,0l0,17.832Zm23.832,6l-29.832,0l0,-29.832l29.832,0l0,29.832Z" style="fill:#bcbebd;fill-rule:nonzero;"/><rect x="478.426" y="697.782" width="214.064" height="12.004" style="fill:#bcbebd;"/><path d="M430.594,754.532l17.832,0l0,-17.832l-17.832,0l0,17.832Zm23.832,6l-29.832,0l0,-29.832l29.832,0l0,29.832Z" style="fill:#bcbebd;fill-rule:nonzero;"/><rect x="478.426" y="739.614" width="214.064" height="12" style="fill:#bcbebd;"/><path d="M430.594,796.364l17.832,0l0,-17.832l-17.832,0l0,17.832Zm23.832,6l-29.832,0l0,-29.832l29.832,0l0,29.832Z" style="fill:#bcbebd;fill-rule:nonzero;"/><rect x="478.426" y="781.446" width="214.064" height="12" style="fill:#bcbebd;"/><rect x="424.594" y="640.86" width="267.896" height="12" style="fill:#bcbebd;"/><path d="M428.472,464.954l17.832,17.832c1.172,1.172 3.072,1.172 4.242,0c1.172,-1.172 1.172,-3.072 0,-4.242l-17.832,-17.832c-1.17,-1.172 -3.07,-1.172 -4.242,0c-1.172,1.17 -1.172,3.07 0,4.242Z" style="fill:#24282a;fill-rule:nonzero;"/><path d="M446.304,460.712l-17.832,17.832c-1.172,1.17 -1.172,3.07 0,4.242c1.172,1.172 3.072,1.172 4.242,0l17.832,-17.832c1.172,-1.172 1.172,-3.072 0,-4.242c-1.17,-1.172 -3.07,-1.172 -4.242,0Z" style="fill:#24282a;fill-rule:nonzero;"/><path d="M428.472,696.988l17.832,17.832c1.172,1.172 3.072,1.172 4.242,0c1.172,-1.17 1.172,-3.07 0,-4.242l-17.832,-17.832c-1.17,-1.172 -3.07,-1.172 -4.242,0c-1.172,1.172 -1.172,3.072 0,4.242Z" style="fill:#24282a;fill-rule:nonzero;"/><path d="M446.304,692.746l-17.832,17.832c-1.172,1.172 -1.172,3.072 0,4.242c1.172,1.172 3.072,1.172 4.242,0l17.832,-17.832c1.172,-1.17 1.172,-3.07 0,-4.242c-1.17,-1.172 -3.07,-1.172 -4.242,0Z" style="fill:#24282a;fill-rule:nonzero;"/><path d="M428.472,1054.51l17.832,17.832c1.172,1.172 3.072,1.172 4.242,0c1.172,-1.172 1.172,-3.07 0,-4.242l-17.832,-17.832c-1.17,-1.172 -3.07,-1.172 -4.242,0c-1.172,1.172 -1.172,3.07 0,4.242Z" style="fill:#24282a;fill-rule:nonzero;"/><path d="M446.304,1050.27l-17.832,17.832c-1.172,1.172 -1.172,3.07 0,4.242c1.172,1.172 3.072,1.172 4.242,0l17.832,-17.832c1.172,-1.172 1.172,-3.07 0,-4.242c-1.17,-1.172 -3.07,-1.172 -4.242,0Z" style="fill:#24282a;fill-rule:nonzero;"/><path d="M386.448,137.514c0.8,-0.16 1.6,-0.32 2.4,-0.32c0.64,0 1.12,0 1.12,-0.16c0.96,3.36 2.08,6.24 3.68,8.8c1.44,2.72 3.36,4.8 5.6,6.72c2.24,1.92 4.96,3.2 8,4.16c2.88,0.96 6.4,1.44 10.24,1.44l1.44,0c0.64,0 1.12,-0.16 1.6,-0.16l0,-17.92c-1.44,-0.16 -2.88,-0.48 -4.64,-0.8c-1.6,-0.32 -3.2,-0.96 -4.64,-1.6c-1.6,-0.8 -2.88,-1.92 -4,-3.36c-1.12,-1.44 -1.92,-3.36 -2.4,-5.76c3.04,-3.04 5.6,-6.72 7.52,-11.04c2.08,-4.32 3.52,-8.96 4.64,-14.08c1.28,-5.12 2.08,-10.4 2.56,-15.84c0.48,-5.6 0.64,-11.04 0.64,-16.48c0,-5.28 -0.32,-10.4 -0.96,-15.36c-0.64,-4.96 -1.6,-9.6 -2.88,-13.92c-1.28,-4.32 -3.04,-8.32 -5.12,-12c-1.92,-3.52 -4.32,-6.56 -7.2,-9.12c-2.72,-2.72 -5.76,-4.64 -9.28,-6.08c-3.52,-1.44 -7.52,-2.08 -11.84,-2.08c-4.32,0 -8.32,0.64 -11.84,2.08c-3.52,1.44 -6.56,3.36 -9.28,6.08c-2.72,2.56 -5.12,5.6 -7.2,9.12c-2.08,3.68 -3.68,7.68 -4.96,12c-1.28,4.32 -2.24,8.96 -2.88,13.92c-0.64,4.96 -0.96,10.08 -0.96,15.36c0,5.12 0.16,10.56 0.64,15.84c0.48,5.28 1.12,10.56 2.24,15.36c0.96,4.96 2.4,9.6 4.16,13.92c1.76,4.32 4,8 6.72,11.2c2.88,3.2 6.08,5.6 9.92,7.52c3.84,1.76 8.32,2.72 13.44,2.72c1.28,0 2.4,-0.16 3.52,-0.16Zm-11.36,-23.36c-1.92,-2.4 -3.2,-5.6 -4.16,-9.76c-0.8,-4.16 -1.28,-9.12 -1.44,-14.72c-0.16,-5.76 -0.32,-11.84 -0.32,-18.56c0,-2.24 0,-4.8 0.16,-7.52c0,-2.88 0.16,-5.76 0.32,-8.64c0.32,-3.04 0.64,-5.92 1.28,-8.8c0.48,-2.72 1.28,-5.28 2.4,-7.52c0.96,-2.24 2.24,-4 3.84,-5.28c1.6,-1.44 3.52,-2.08 5.76,-2.08c2.24,0 4.16,0.64 5.76,2.08c1.6,1.28 2.88,3.04 4,5.28c0.96,2.24 1.76,4.8 2.4,7.52c0.48,2.88 0.96,5.76 1.12,8.8c0.32,2.88 0.48,5.76 0.48,8.64c0.16,2.72 0.16,5.28 0.16,7.52c0,6.72 -0.16,12.8 -0.32,18.56c-0.16,5.6 -0.64,10.56 -1.6,14.72c-0.8,4.16 -2.24,7.36 -4.16,9.76c-1.76,2.4 -4.48,3.52 -7.84,3.52c-3.36,0 -6.08,-1.12 -7.84,-3.52Z" style="fill:#fefefd;fill-rule:nonzero;"/><path d="M437.008,95.594c0,5.6 0.64,11.04 1.92,16.16c1.28,5.12 3.36,9.6 6.08,13.44c2.72,3.84 6.24,6.88 10.4,9.12c4.32,2.24 9.28,3.36 15.04,3.36c6.24,0 11.52,-0.8 15.68,-2.4c4.32,-1.44 7.84,-3.52 10.56,-6.08c2.72,-2.56 4.8,-5.44 6.24,-8.8c1.44,-3.2 2.56,-6.56 3.2,-9.76c0.64,-3.36 0.96,-6.56 1.12,-9.6c0.16,-3.2 0.16,-5.92 0.16,-8.16l0,-77.76l-21.6,1.92l0,80.16c0,2.4 0,4.8 -0.16,7.2c-0.16,2.4 -0.48,4.64 -1.28,6.56c-0.8,1.92 -2.08,3.52 -3.68,4.8c-1.6,1.28 -4,1.92 -7.04,1.92c-3.2,0 -5.76,-0.64 -7.52,-1.76c-1.76,-1.28 -3.04,-2.88 -3.84,-4.8c-0.96,-1.92 -1.44,-4.16 -1.6,-6.56c-0.16,-2.4 -0.16,-4.64 -0.16,-7.04l0,-82.4l-23.52,0.96l0,79.52Z" style="fill:#fefefd;fill-rule:nonzero;"/><path d="M528.688,136.074l23.52,-1.92l0,-119.04l-23.52,1.92l0,119.04Z" style="fill:#fefefd;fill-rule:nonzero;"/><path d="M567.248,120.234l0,14.88l66.4,0l3.68,-18.72l-41.12,0l40.16,-85.76l0,-15.52l-63.52,0l-1.92,18.72l37.76,0l-41.44,86.4Z" style="fill:#fefefd;fill-rule:nonzero;"/><path d="M707.728,33.834l0,102.24l23.36,-1.92l0,-100.32l22.4,0l1.92,-18.72l-70.24,0l-1.92,18.72l24.48,0Z" style="fill:#fefefd;fill-rule:nonzero;"/><path d="M768.368,136.074l23.52,-1.92l0,-119.04l-23.52,1.92l0,119.04Z" style="fill:#fefefd;fill-rule:nonzero;"/><path d="M857.328,135.114l14.56,0l22.4,-89.12l0,90.08l24.16,-1.92l0,-118.08l-31.2,1.92l-19.2,71.52l-19.84,-74.24l-34.24,0.96l0,118.88l19.36,-0.96l0,-88.48l24,89.44Z" style="fill:#fefefd;fill-rule:nonzero;"/><path d="M940.688,135.114l60.32,0l1.92,-18.72l-38.72,0l0,-33.76l25.12,0l0,-20.16l-25.12,0l0,-28.64l35.52,0l1.92,-18.72l-60.96,0l0,120Z" style="fill:#fefefd;fill-rule:nonzero;"/><path d="M1020.53,100.074l15.04,0l3.68,-84.96l-22.56,0l3.84,84.96Zm18.72,35.04l0,-23.36l-22.56,0l0,24.32l22.56,-0.96Z" style="fill:#fefefd;fill-rule:nonzero;"/><path d="M758.182,969.514l-35.95,29l-179.626,-220.956c-8.04,-9.89 -6.508,-24.398 3.42,-32.408c9.926,-8.008 24.492,-6.484 32.532,3.406l179.624,220.958Z" style="fill:#f5c19b;fill-rule:nonzero;"/><path d="M584.554,769.662l-22.468,18.126l-12.74,-15.67c-5.024,-6.178 -4.064,-15.246 2.138,-20.25c6.204,-5.008 15.308,-4.054 20.332,2.126l12.738,15.668Z" style="fill:#f9d7be;fill-rule:nonzero;"/><path d="M800.872,935.078l-35.948,29l-107.426,-132.146c-8.042,-9.888 -6.51,-24.396 3.418,-32.408c9.928,-8.004 24.494,-6.482 32.536,3.41l107.42,132.144Z" style="fill:#f5c19b;fill-rule:nonzero;"/><path d="M843.566,900.64l-35.954,28.998l-101.962,-125.43c-8.04,-9.884 -6.51,-24.392 3.416,-32.404c9.928,-8.006 24.494,-6.482 32.532,3.406l101.968,125.43Z" style="fill:#f5c19b;fill-rule:nonzero;"/><path d="M886.258,866.202l-35.954,29.002l-91.048,-112.002c-8.036,-9.888 -6.508,-24.394 3.422,-32.404c9.924,-8.006 24.492,-6.484 32.53,3.406l91.05,111.998Z" style="fill:#f5c19b;fill-rule:nonzero;"/><path d="M668.782,914.296l-27.422,22.114c-9.718,7.842 -11.218,22.052 -3.348,31.736l48.268,59.368l45.018,-36.314l-62.516,-76.904Z" style="fill:#f5c19b;fill-rule:nonzero;"/><path d="M873.804,850.884l-199.974,161.312l12.45,15.318l86.268,24.642l126.988,-102.436l-13.278,-83.518l-12.454,-15.318Z" style="fill:#f5c19b;fill-rule:nonzero;"/><path d="M783.112,806.506l-131.044,105.702l473.267,550.811l163.381,-34.565l-505.604,-621.948Z" style="fill:#f5c19b;fill-rule:nonzero;"/><path d="M812.842,812.502l-128.076,103.312l-26.184,-32.206l17.976,-14.502c1.506,1.856 4.236,2.142 6.102,0.638c1.858,-1.498 2.146,-4.218 0.638,-6.072l35.95,-28.998c1.508,1.852 4.24,2.138 6.096,0.636c1.866,-1.502 2.152,-4.224 0.644,-6.078l35.952,-28.998c1.508,1.854 4.236,2.138 6.102,0.638c1.858,-1.502 2.144,-4.22 0.64,-6.074l17.976,-14.5l26.184,32.204Z" style="fill:#f5c19b;fill-rule:nonzero;"/><path d="M656.648,924.082l-0.002,0l3.064,-2.474l0.002,0.002l-3.064,2.472Z" style="fill:#f6dac7;fill-rule:nonzero;"/><path d="M655.688,924.856l0.958,-0.774l0.002,0l-0.96,0.774Z" style="fill:#b7a699;fill-rule:nonzero;"/><path d="M690.978,968.702c-2.528,0 -5.032,-1.094 -6.748,-3.204l-31.258,-38.45l2.716,-2.192l0.96,-0.774l3.064,-2.472l36.718,45.168c-1.606,1.294 -3.536,1.924 -5.452,1.924Z" style="fill:#f0ad81;fill-rule:nonzero;"/><path d="M696.43,966.778l-36.718,-45.168l-0.002,-0.002l0.002,0l36.72,45.17l-0.002,0Z" style="fill:#f0ad81;fill-rule:nonzero;"/><path d="M191.414,334.86l-109.968,0c-7.086,0 -12.828,5.742 -12.828,12.822l0,153.294c0,7.084 5.742,12.824 12.828,12.824l109.968,0c7.084,0 12.824,-5.74 12.824,-12.824l0,-153.294c0,-7.08 -5.74,-12.822 -12.824,-12.822Z" style="fill:#fdbb39;fill-rule:nonzero;"/><rect x="86.426" y="352.67" width="100.002" height="143.32" style="fill:#faa331;"/><rect x="136.428" y="352.67" width="50" height="143.32" style="fill:#d0d2d1;"/><path d="M180.458,424.33c0,5.91 -4.786,10.696 -10.694,10.696c-5.908,0 -10.696,-4.786 -10.696,-10.696c0,-5.908 4.788,-10.694 10.696,-10.694c5.908,0 10.694,4.786 10.694,10.694Z" style="fill:#7b7f80;fill-rule:nonzero;"/><rect x="136.428" y="352.67" width="16.668" height="143.32" style="fill:#bcbebd;"/><rect x="0" y="589.158" width="272.856" height="464.06" style="fill:#24282a;"/><rect x="21.726" y="610.884" width="229.404" height="87.708" style="fill:#a6a9aa;"/><path d="M70.958,766.658c0,13.594 -11.022,24.614 -24.616,24.614c-13.596,0 -24.616,-11.02 -24.616,-24.614c0,-13.592 11.02,-24.612 24.616,-24.612c13.594,0 24.616,11.02 24.616,24.612Z" style="fill:#f48380;fill-rule:nonzero;"/><path d="M131.016,766.658c0,13.594 -11.022,24.614 -24.618,24.614c-13.592,0 -24.614,-11.02 -24.614,-24.614c0,-13.592 11.022,-24.612 24.614,-24.612c13.596,0 24.618,11.02 24.618,24.612Z" style="fill:#fdbb39;fill-rule:nonzero;"/><path d="M191.078,766.658c0,13.594 -11.022,24.614 -24.618,24.614c-13.594,0 -24.616,-11.02 -24.616,-24.614c0,-13.592 11.022,-24.612 24.616,-24.612c13.596,0 24.618,11.02 24.618,24.612Z" style="fill:#919394;fill-rule:nonzero;"/><path d="M251.134,766.658c0,13.594 -11.024,24.614 -24.618,24.614c-13.594,0 -24.616,-11.02 -24.616,-24.614c0,-13.592 11.022,-24.612 24.616,-24.612c13.594,0 24.618,11.02 24.618,24.612Z" style="fill:#919394;fill-rule:nonzero;"/><path d="M70.958,826.71c0,13.594 -11.022,24.616 -24.616,24.616c-13.596,0 -24.616,-11.022 -24.616,-24.616c0,-13.594 11.02,-24.618 24.616,-24.618c13.594,0 24.616,11.024 24.616,24.618Z" style="fill:#919394;fill-rule:nonzero;"/><path d="M131.016,826.71c0,13.594 -11.022,24.616 -24.618,24.616c-13.592,0 -24.614,-11.022 -24.614,-24.616c0,-13.594 11.022,-24.618 24.614,-24.618c13.596,0 24.618,11.024 24.618,24.618Z" style="fill:#919394;fill-rule:nonzero;"/><path d="M191.078,826.71c0,13.594 -11.022,24.616 -24.618,24.616c-13.594,0 -24.616,-11.022 -24.616,-24.616c0,-13.594 11.022,-24.618 24.616,-24.618c13.596,0 24.618,11.024 24.618,24.618Z" style="fill:#919394;fill-rule:nonzero;"/><path d="M251.134,826.71c0,13.594 -11.024,24.616 -24.618,24.616c-13.594,0 -24.616,-11.022 -24.616,-24.616c0,-13.594 11.022,-24.618 24.616,-24.618c13.594,0 24.618,11.024 24.618,24.618Z" style="fill:#919394;fill-rule:nonzero;"/><path d="M70.958,886.772c0,13.594 -11.022,24.61 -24.616,24.61c-13.596,0 -24.616,-11.016 -24.616,-24.61c0,-13.598 11.02,-24.618 24.616,-24.618c13.594,0 24.616,11.02 24.616,24.618Z" style="fill:#919394;fill-rule:nonzero;"/><path d="M131.016,886.772c0,13.594 -11.022,24.61 -24.618,24.61c-13.592,0 -24.614,-11.016 -24.614,-24.61c0,-13.598 11.022,-24.618 24.614,-24.618c13.596,0 24.618,11.02 24.618,24.618Z" style="fill:#919394;fill-rule:nonzero;"/><path d="M191.078,886.772c0,13.594 -11.022,24.61 -24.618,24.61c-13.594,0 -24.616,-11.016 -24.616,-24.61c0,-13.598 11.022,-24.618 24.616,-24.618c13.596,0 24.618,11.02 24.618,24.618Z" style="fill:#919394;fill-rule:nonzero;"/><path d="M251.134,886.772c0,13.594 -11.024,24.61 -24.618,24.61c-13.594,0 -24.616,-11.016 -24.616,-24.61c0,-13.598 11.022,-24.618 24.616,-24.618c13.594,0 24.618,11.02 24.618,24.618Z" style="fill:#919394;fill-rule:nonzero;"/><path d="M70.958,946.82c0,13.596 -11.022,24.616 -24.616,24.616c-13.596,0 -24.616,-11.02 -24.616,-24.616c0,-13.594 11.02,-24.618 24.616,-24.618c13.594,0 24.616,11.024 24.616,24.618Z" style="fill:#919394;fill-rule:nonzero;"/><path d="M131.016,946.82c0,13.596 -11.022,24.616 -24.618,24.616c-13.592,0 -24.614,-11.02 -24.614,-24.616c0,-13.594 11.022,-24.618 24.614,-24.618c13.596,0 24.618,11.024 24.618,24.618Z" style="fill:#919394;fill-rule:nonzero;"/><path d="M191.078,946.82c0,13.596 -11.022,24.616 -24.618,24.616c-13.594,0 -24.616,-11.02 -24.616,-24.616c0,-13.594 11.022,-24.618 24.616,-24.618c13.596,0 24.618,11.024 24.618,24.618Z" style="fill:#919394;fill-rule:nonzero;"/><path d="M251.134,946.82c0,13.596 -11.024,24.616 -24.618,24.616c-13.594,0 -24.616,-11.02 -24.616,-24.616c0,-13.594 11.022,-24.618 24.616,-24.618c13.594,0 24.618,11.024 24.618,24.618Z" style="fill:#919394;fill-rule:nonzero;"/><path d="M70.958,1006.88c0,13.594 -11.022,24.608 -24.616,24.608c-13.596,0 -24.616,-11.014 -24.616,-24.608c0,-13.598 11.02,-24.618 24.616,-24.618c13.594,0 24.616,11.02 24.616,24.618Z" style="fill:#919394;fill-rule:nonzero;"/><path d="M131.016,1006.88c0,13.594 -11.022,24.608 -24.618,24.608c-13.592,0 -24.614,-11.014 -24.614,-24.608c0,-13.598 11.022,-24.618 24.614,-24.618c13.596,0 24.618,11.02 24.618,24.618Z" style="fill:#919394;fill-rule:nonzero;"/><path d="M191.078,1006.88c0,13.594 -11.022,24.608 -24.618,24.608c-13.594,0 -24.616,-11.014 -24.616,-24.608c0,-13.598 11.022,-24.618 24.616,-24.618c13.596,0 24.618,11.02 24.618,24.618Z" style="fill:#919394;fill-rule:nonzero;"/><path d="M251.134,1006.88c0,13.594 -11.024,24.608 -24.618,24.608c-13.594,0 -24.616,-11.014 -24.616,-24.608c0,-13.598 11.022,-24.618 24.616,-24.618c13.594,0 24.618,11.02 24.618,24.618Z" style="fill:#919394;fill-rule:nonzero;"/><rect x="21.726" y="610.884" width="114.704" height="87.708" style="fill:#bfc1c1;"/><path d="M1392.12,902.008l0,-315.446c0,-9.542 -7.738,-17.276 -17.28,-17.276l-112.934,0c-9.548,0 -17.282,7.734 -17.282,17.276l0,315.446c0,9.544 7.734,17.278 17.282,17.278l112.934,0c9.542,0 17.28,-7.734 17.28,-17.278Z" style="fill:#f48380;fill-rule:nonzero;"/><path d="M1374.84,919.286l-112.934,0c-9.548,0 -17.282,-7.734 -17.282,-17.278l0,-40.44c0,-9.544 7.734,-17.28 17.282,-17.28l112.934,0c9.542,0 17.28,7.736 17.28,17.28l0,40.44c0,9.544 -7.738,17.278 -17.28,17.278Z" style="fill:#f7a2a0;fill-rule:nonzero;"/><path d="M1370.84,525.056l-98.38,0c-11.734,0 -21.284,-9.55 -21.284,-21.286c0,-11.734 9.55,-21.284 21.284,-21.284l98.38,0c8.124,0 14.734,6.61 14.734,14.736c0,8.124 -6.61,14.736 -14.734,14.736l-87.782,0c-4.512,0 -8.188,-3.672 -8.188,-8.188c0,-4.512 3.676,-8.186 8.188,-8.186l33.632,0l0,-6.548l-33.632,0c-8.136,0 -14.734,6.596 -14.734,14.734c0,8.14 6.598,14.736 14.734,14.736l87.782,0c11.754,0 21.284,-9.53 21.284,-21.284c0,-11.754 -9.53,-21.284 -21.284,-21.284l-98.38,0c-15.37,0 -27.832,12.458 -27.832,27.832c0,15.372 12.462,27.834 27.832,27.834l98.38,0l0,-6.548Z" style="fill:#d0d2d1;fill-rule:nonzero;"/></g></svg>